<?xml version="1.0" standalone="no"?>
<!DOCTYPE svg PUBLIC "-//W3C//DTD SVG 20010904//EN"
 "http://www.w3.org/TR/2001/REC-SVG-20010904/DTD/svg10.dtd">
<svg version="1.0" xmlns="http://www.w3.org/2000/svg"
 width="395.000000pt" height="395.000000pt" viewBox="0 0 395.000000 395.000000"
 preserveAspectRatio="xMidYMid meet">
<metadata>
Created by potrace 1.11, written by Peter Selinger 2001-2013
</metadata>
<g transform="translate(0.000000,395.000000) scale(0.100000,-0.100000)"
fill="#000000" stroke="none">
<path d="M1798 3935 c-2 -2 -30 -6 -63 -10 -188 -21 -424 -93 -625 -192 -74
-36 -137 -69 -140 -72 -3 -3 -25 -19 -50 -35 -473 -304 -798 -808 -885 -1371
-25 -165 -20 -460 10 -605 3 -14 7 -40 10 -58 15 -115 104 -371 175 -507 132
-252 276 -433 496 -624 116 -101 325 -227 494 -298 113 -47 190 -74 200 -68 5
3 10 1 12 -3 1 -5 40 -18 86 -29 l83 -21 14 35 c24 57 36 113 30 134 -4 11 -8
34 -11 52 -2 18 -17 73 -33 122 -27 82 -44 131 -111 310 -12 33 -33 71 -46 85
-24 24 -28 25 -137 21 -61 -2 -180 -4 -262 -5 -143 -1 -153 0 -200 25 -75 38
-95 82 -100 211 -4 111 -12 142 -50 192 -29 38 -32 81 -9 115 15 21 15 24 1
32 -19 11 -32 77 -29 153 2 32 -2 71 -8 85 -10 25 -65 57 -130 76 -32 10 -80
42 -102 69 -38 46 -25 77 139 353 115 194 117 196 126 223 11 34 10 188 -2
227 -13 43 -6 128 14 183 9 25 18 52 20 60 4 18 43 127 55 155 5 11 21 47 35
80 44 101 93 172 185 264 56 56 91 86 122 102 12 6 25 15 28 19 18 23 220 109
296 125 10 2 55 13 99 24 44 11 98 23 119 27 21 3 48 8 60 10 94 21 419 24
526 5 162 -29 313 -81 441 -151 39 -22 75 -40 80 -40 4 0 9 -3 11 -8 2 -4 34
-30 72 -57 129 -91 266 -243 338 -375 35 -64 79 -180 73 -190 -3 -4 -1 -10 4
-12 5 -1 12 -23 15 -48 3 -25 8 -56 11 -70 7 -32 7 -217 0 -250 -3 -14 -8 -45
-11 -70 -10 -72 -50 -201 -94 -302 -99 -225 -161 -390 -174 -463 -3 -16 -8
-41 -11 -55 -14 -63 -21 -258 -11 -305 2 -11 7 -47 11 -80 3 -33 15 -100 27
-150 11 -49 22 -101 24 -115 8 -38 64 -137 101 -178 18 -20 33 -38 33 -41 1
-4 29 -37 63 -74 l62 -68 85 88 c109 113 152 165 233 285 59 88 143 246 195
368 43 100 100 305 119 430 17 114 9 540 -12 640 -7 31 -24 107 -31 139 -10
46 -85 265 -102 295 -9 17 -17 33 -17 36 -2 14 -79 157 -116 217 -155 248
-351 449 -595 611 -49 32 -102 66 -119 74 -16 9 -50 26 -75 40 -58 31 -242
105 -311 124 -112 31 -201 52 -259 60 -19 3 -48 8 -65 11 -33 6 -431 14 -437
8z"/>
<path d="M1519 3536 c-31 -15 -53 -60 -45 -92 7 -25 69 -71 74 -55 2 5 12 6
24 3 13 -3 24 1 30 12 6 11 22 16 49 16 38 0 47 -7 207 -167 92 -92 168 -171
168 -175 1 -4 2 -16 3 -26 2 -33 40 -64 74 -61 74 6 104 85 51 134 -14 13 -32
21 -39 19 -16 -7 -59 32 -252 227 l-137 138 -46 -1 c-25 -1 -55 3 -67 10 -48
26 -70 30 -94 18z m62 -36 c15 0 10 -47 -6 -60 -25 -21 -65 2 -58 32 7 27 23
40 41 33 8 -3 18 -5 23 -5z m563 -417 c8 -19 -11 -53 -29 -53 -43 0 -60 34
-30 63 17 18 51 12 59 -10z"/>
<path d="M2010 3542 c-23 -8 -50 -43 -50 -63 0 -73 81 -114 132 -66 7 6 28 13
46 14 27 2 41 -6 77 -42 l44 -43 -1 -228 -1 -228 -69 -68 c-38 -37 -72 -68
-76 -68 -4 0 -162 155 -352 345 l-344 345 -81 0 -80 0 -65 -64 c-48 -48 -74
-66 -101 -70 -58 -9 -78 -74 -37 -120 49 -54 138 -23 138 48 0 7 22 36 49 64
47 49 53 52 98 52 l48 0 365 -365 365 -365 115 116 115 116 1 262 0 263 -66
68 c-66 67 -68 68 -123 70 -31 1 -62 7 -71 14 -17 14 -55 21 -76 13z m59 -56
c26 -31 -25 -79 -53 -50 -18 17 -19 24 -10 48 8 20 47 21 63 2z m-931 -228
c34 -34 -5 -76 -48 -53 -25 13 -26 16 -9 48 11 20 40 22 57 5z"/>
<path d="M2482 3308 c-36 -18 -46 -85 -17 -118 8 -9 14 -24 14 -35 0 -11 1
-38 2 -60 1 -22 0 -58 0 -80 -1 -22 -1 -56 0 -75 5 -135 1 -151 -40 -191 -22
-20 -46 -37 -53 -36 -35 1 -46 -6 -61 -38 -27 -57 6 -114 66 -115 34 0 77 40
77 72 0 15 18 42 50 73 l50 49 0 208 c0 187 2 211 19 239 43 70 -31 143 -107
107z m80 -46 c7 -27 -16 -54 -44 -50 -23 3 -34 27 -24 54 8 21 63 18 68 -4z
m-144 -594 c19 -19 14 -56 -8 -63 -26 -8 -59 11 -55 32 2 10 4 21 4 25 1 5 15
11 42 17 3 0 10 -4 17 -11z"/>
<path d="M1303 3194 c-21 -21 -24 -32 -20 -62 8 -43 24 -61 63 -68 18 -3 53
-29 96 -72 l68 -67 -136 1 -135 1 -60 60 c-32 34 -59 70 -59 81 0 10 -9 31
-21 46 -38 49 -122 25 -133 -38 -8 -48 27 -95 71 -96 13 0 48 -26 91 -70 l69
-69 252 -1 c139 -1 255 1 257 3 3 2 -59 68 -136 146 -78 78 -139 145 -136 149
9 15 -26 70 -47 76 -40 10 -58 6 -84 -20z m81 -36 c20 -28 4 -58 -29 -58 -33
0 -47 47 -20 67 25 18 31 17 49 -9z m-312 -83 c13 -28 -3 -55 -32 -55 -19 0
-38 18 -38 35 0 43 53 58 70 20z"/>
<path d="M2711 3064 c-26 -33 -27 -76 -3 -97 16 -15 18 -33 18 -149 l-1 -133
-265 -267 -265 -266 1 -1059 c0 -582 3 -1064 8 -1071 9 -16 63 -16 73 1 4 6 7
386 8 842 l0 830 403 403 c270 271 402 410 403 425 1 12 1 47 1 77 0 37 6 65
19 86 28 45 10 107 -34 118 -78 19 -134 -54 -90 -120 12 -19 18 -48 18 -86 l1
-58 -358 -356 c-197 -196 -359 -353 -359 -348 -10 74 -15 66 158 239 115 115
172 165 194 170 95 21 88 155 -9 155 -28 0 -70 -29 -73 -52 -1 -4 -3 -12 -4
-18 -1 -5 -3 -14 -4 -20 -1 -7 -258 -270 -265 -270 -1 0 -2 18 -1 40 0 39 8
48 264 304 l263 264 2 149 c1 107 5 154 14 166 23 28 24 66 2 98 -29 40 -89
42 -119 3z m90 -21 c7 -41 4 -52 -16 -61 -34 -16 -59 5 -50 41 6 22 13 27 36
27 16 0 30 -3 30 -7z m280 -294 c12 -19 11 -25 -7 -43 -22 -23 -43 -20 -56 9
-8 19 -8 28 2 39 14 18 48 15 61 -5z m-413 -421 c5 -38 -32 -58 -57 -31 -27
28 -10 65 26 61 22 -2 29 -9 31 -30z"/>
<path d="M833 2922 c-43 -46 -24 -104 42 -126 20 -7 68 -44 108 -82 l73 -70
344 0 345 1 193 -193 192 -193 60 59 c33 33 71 63 85 66 14 4 25 11 25 17 0 6
4 8 9 5 5 -3 12 2 16 12 16 41 14 61 -10 91 -22 25 -32 30 -62 27 -42 -3 -73
-35 -73 -75 -1 -14 -11 -39 -24 -54 l-23 -28 -175 176 -176 176 -344 0 -345 0
-65 63 c-35 34 -62 68 -60 74 2 7 -7 27 -21 46 -32 41 -80 45 -114 8z m81 -21
c19 -21 12 -48 -15 -56 -41 -13 -68 43 -31 64 23 14 27 14 46 -8z m1374 -414
c6 -7 9 -23 6 -34 -11 -43 -74 -33 -74 12 0 33 46 48 68 22z"/>
<path d="M876 2712 c-29 -6 -47 -28 -53 -66 -4 -28 -1 -39 20 -60 15 -14 36
-26 48 -26 12 0 43 -19 68 -42 l46 -43 329 1 328 0 162 -160 161 -161 2 -47
c0 -27 -2 -48 -6 -48 -3 0 -70 64 -149 143 l-142 142 -178 1 c-97 1 -180 2
-184 3 -4 1 -10 17 -14 37 -8 42 -44 70 -87 65 -42 -4 -62 -27 -62 -72 0 -44
27 -79 62 -79 13 0 33 -9 45 -20 20 -18 36 -20 204 -20 l181 0 167 -165 166
-166 1 -944 c1 -520 2 -951 3 -957 1 -17 67 -23 76 -7 5 6 8 496 8 1088 l0
1076 -188 188 -188 187 -334 0 -334 0 -28 28 c-14 16 -29 42 -32 58 -9 50 -49
77 -98 66z m59 -62 c14 -43 -31 -72 -60 -40 -13 14 -14 23 -6 38 19 35 55 36
66 2z m329 -256 c27 -27 16 -64 -20 -64 -34 0 -51 36 -28 61 21 23 28 24 48 3z"/>
<path d="M3063 2210 c-13 -11 -24 -27 -24 -35 -3 -29 -4 -32 -24 -59 -19 -25
-25 -27 -90 -26 -38 1 -80 1 -92 1 -27 -1 -417 -383 -432 -424 -6 -15 -7 -27
-3 -27 6 0 7 -95 2 -110 -2 -3 -1 -9 0 -15 2 -12 2 -246 -1 -260 -1 -5 0 -14
1 -20 3 -14 1 -291 -2 -348 -2 -26 -1 -47 2 -47 7 0 2 -89 -5 -108 -2 -6 -1
-12 3 -12 4 0 6 -62 4 -137 -2 -138 -2 -189 2 -251 1 -19 -2 -36 -6 -38 -4 -3
-5 -11 -1 -20 3 -8 6 -70 7 -137 l1 -122 34 -3 c20 -2 37 2 42 10 5 7 9 375 9
818 l0 806 119 119 c65 66 146 147 180 179 l60 60 90 1 c86 1 92 2 121 30 17
17 48 35 68 40 55 16 81 84 47 128 -21 29 -85 33 -112 7z m81 -39 c19 -21 15
-35 -14 -51 -28 -15 -65 22 -50 50 14 25 42 26 64 1z"/>
<path d="M2854 1760 c-12 -5 -24 -13 -27 -17 -3 -5 -30 -8 -59 -7 -51 1 -55 0
-105 -49 l-53 -51 1 -798 c0 -440 2 -805 6 -813 7 -21 69 -20 77 1 3 9 6 366
6 793 l0 778 25 25 c29 30 70 31 123 3 53 -27 106 -3 115 53 4 25 -1 38 -23
62 -29 31 -49 35 -86 20z m71 -69 c-2 -9 -4 -19 -4 -23 -1 -4 -10 -12 -21 -18
-38 -21 -67 32 -35 64 20 19 65 2 60 -23z"/>
</g>
</svg>
